<svg width="21" height="21" viewBox="0 0 21 21" fill="none" xmlns="http://www.w3.org/2000/svg">
<g id="Group 101">
<path id="Vector" d="M19.6834 3.59698C19.4951 3.08689 19.1948 2.6252 18.8046 2.24622C18.4256 1.85601 17.9642 1.55571 17.4539 1.36747C17.0399 1.2067 16.4181 1.01534 15.2727 0.963208C14.0337 0.906706 13.6622 0.894531 10.5256 0.894531C7.38858 0.894531 7.0171 0.906394 5.77842 0.962896C4.63307 1.01534 4.01092 1.2067 3.59729 1.36747C3.08689 1.55571 2.6252 1.85601 2.24654 2.24622C1.85632 2.6252 1.55602 3.08658 1.36747 3.59698C1.2067 4.01092 1.01534 4.63307 0.963208 5.77842C0.906706 7.0171 0.894531 7.38858 0.894531 10.5256C0.894531 13.6622 0.906706 14.0337 0.963208 15.2727C1.01534 16.4181 1.2067 17.0399 1.36747 17.4539C1.55602 17.9642 1.85601 18.4256 2.24622 18.8046C2.6252 19.1948 3.08658 19.4951 3.59698 19.6834C4.01092 19.8444 4.63307 20.0358 5.77842 20.0879C7.0171 20.1444 7.38827 20.1563 10.5253 20.1563C13.6626 20.1563 14.034 20.1444 15.2724 20.0879C16.4178 20.0358 17.0399 19.8444 17.4539 19.6834C18.4784 19.2882 19.2882 18.4784 19.6834 17.4539C19.8441 17.0399 20.0355 16.4181 20.0879 15.2727C20.1444 14.0337 20.1563 13.6622 20.1563 10.5256C20.1563 7.38858 20.1444 7.0171 20.0879 5.77842C20.0358 4.63307 19.8444 4.01092 19.6834 3.59698ZM10.5256 16.5576C7.19379 16.5576 4.4929 13.857 4.4929 10.5253C4.4929 7.19348 7.19379 4.4929 10.5256 4.4929C13.857 4.4929 16.5579 7.19348 16.5579 10.5253C16.5579 13.857 13.857 16.5576 10.5256 16.5576ZM16.7964 5.66416C16.0179 5.66416 15.3867 5.03296 15.3867 4.25441C15.3867 3.47586 16.0179 2.84465 16.7964 2.84465C17.575 2.84465 18.2062 3.47586 18.2062 4.25441C18.2059 5.03296 17.575 5.66416 16.7964 5.66416Z" fill="#231F20"/>
<path id="Vector_2" d="M14.788 10.5248C14.788 12.8783 12.8802 14.786 10.5268 14.786C8.17337 14.786 6.26562 12.8783 6.26562 10.5248C6.26562 8.17142 8.17337 6.26367 10.5268 6.26367C12.8802 6.26367 14.788 8.17142 14.788 10.5248Z" fill="#231F20"/>
</g>
</svg>
