<svg width="21" height="24" viewBox="0 0 21 24" fill="none" xmlns="http://www.w3.org/2000/svg">
<path id="Shopee_logo 1 (Traced)" fill-rule="evenodd" clip-rule="evenodd" d="M10.3515 0.0147787C9.47708 0.0913854 8.64004 0.455923 7.9157 1.07558C7.70947 1.25199 7.32001 1.66778 7.1584 1.88405C6.54238 2.70844 6.13938 3.65632 5.94999 4.7262C5.89923 5.01295 5.86704 5.28713 5.85538 5.53195L5.84592 5.73035H3.54384C1.00363 5.73035 1.15368 5.7243 1.02289 5.832C0.927592 5.91047 0.872568 6.02742 0.86337 6.17104C0.859209 6.23599 1.00231 9.76192 1.18138 14.0065C1.53575 22.4057 1.51143 21.9465 1.62075 22.3085C1.82404 22.9816 2.29938 23.4964 2.88532 23.678C3.15303 23.7609 2.69542 23.7563 10.6162 23.7563C18.5562 23.7562 18.0874 23.7611 18.3774 23.6754C18.5375 23.6281 18.8323 23.4698 18.9831 23.3501C19.4084 23.0127 19.6939 22.5 19.776 21.9263C19.7894 21.8326 19.9384 18.716 20.1572 13.9546C20.5136 6.20063 20.5163 6.13596 20.4895 6.04499C20.4569 5.93434 20.371 5.8284 20.271 5.7757L20.2004 5.73845L17.8679 5.73416L15.5355 5.72985L15.5271 5.62888C15.5225 5.57335 15.5114 5.44044 15.5025 5.33355C15.3769 3.83049 14.7456 2.38042 13.7876 1.39453C12.8209 0.399691 11.5917 -0.0938798 10.3515 0.0147787ZM11.1883 1.42795C11.6228 1.51611 12.0038 1.68006 12.3712 1.93699C13.185 2.50623 13.8066 3.4902 14.0667 4.62093C14.1414 4.94551 14.1785 5.20792 14.208 5.62103L14.2158 5.73035H10.689H7.16214L7.17185 5.53195C7.18951 5.17151 7.26663 4.71411 7.37019 4.35567C7.61996 3.49133 8.04759 2.76915 8.62384 2.23861C9.10926 1.79168 9.64722 1.52155 10.2664 1.4138C10.4415 1.38333 11.0114 1.39208 11.1883 1.42795ZM11.2026 8.71764C12.0607 8.83613 12.8059 9.10945 13.5301 9.57131C13.7139 9.68852 13.8016 9.76902 13.817 9.83459C13.8305 9.89232 13.7929 9.9778 13.6413 10.2334C13.5808 10.3355 13.5085 10.4592 13.4807 10.5082C13.3733 10.6971 13.3386 10.6984 13.0747 10.5236C12.3423 10.0385 11.5928 9.79056 10.6994 9.73802C10.3897 9.7198 10.0207 9.77504 9.70848 9.8864C9.14385 10.0878 8.69314 10.5103 8.50371 11.0159C8.3992 11.2948 8.36472 11.5309 8.3914 11.7846C8.47173 12.549 8.99878 13.1141 10.064 13.5782C10.1795 13.6285 10.431 13.7263 10.6229 13.7955C11.2763 14.0314 11.733 14.2256 12.1669 14.4523C13.4175 15.1056 14.0696 15.8362 14.2626 16.8003C14.3097 17.0354 14.3204 17.5024 14.2856 17.7968C14.1584 18.8712 13.5948 19.7309 12.704 20.2092C12.3288 20.4106 11.9085 20.5412 11.3651 20.6254C11.1207 20.6632 10.5481 20.6629 10.2253 20.6248C9.30751 20.5164 8.40223 20.2027 7.76441 19.7721C7.40788 19.5314 6.94082 19.1602 6.91946 19.1006C6.89761 19.0396 6.91834 18.9961 7.13005 18.6582C7.37263 18.2712 7.416 18.2174 7.48576 18.2174C7.54549 18.2174 7.57773 18.2366 7.69289 18.341C7.92951 18.5555 8.35733 18.8476 8.68727 19.02C9.40346 19.3944 10.2054 19.5887 10.8485 19.5436C11.6564 19.4871 12.3123 19.2161 12.7393 18.7624C12.9708 18.5163 13.1157 18.2545 13.1988 17.9319C13.2363 17.7865 13.24 17.7471 13.2397 17.4967C13.2393 17.1951 13.2233 17.1021 13.1276 16.8462C12.9339 16.3284 12.463 15.8534 11.781 15.4877C11.5111 15.343 11.3058 15.2554 10.8891 15.1073C10.3091 14.9012 9.46292 14.5479 9.05468 14.3416C8.65729 14.1407 8.19855 13.7734 7.92237 13.4348C7.46795 12.8778 7.26353 12.2673 7.29278 11.5543C7.32836 10.6865 7.74011 9.90364 8.44521 9.36308C8.91796 9.00065 9.51806 8.76775 10.1694 8.69393C10.3505 8.67339 10.9883 8.68804 11.2026 8.71764Z" fill="#231F20"/>
</svg>
