<svg width="30" height="30" viewBox="0 0 30 30" fill="none" xmlns="http://www.w3.org/2000/svg">
<g id="mdi:youtube">
<path id="Vector" d="M12.2116 19.1053L18.4942 15.4737L12.2116 11.8421V19.1053ZM26.2052 9.62684C26.3626 10.1958 26.4716 10.9584 26.5442 11.9268C26.6289 12.8953 26.6652 13.7305 26.6652 14.4568L26.7379 15.4737C26.7379 18.1247 26.5442 20.0737 26.2052 21.3205C25.9026 22.41 25.2005 23.1121 24.111 23.4147C23.5421 23.5721 22.501 23.6811 20.9031 23.7537C19.3294 23.8384 17.8889 23.8747 16.5573 23.8747L14.6326 23.9474C9.5605 23.9474 6.40103 23.7537 5.15419 23.4147C4.06471 23.1121 3.36261 22.41 3.05998 21.3205C2.90261 20.7516 2.79366 19.9889 2.72103 19.0205C2.63629 18.0521 2.59998 17.2168 2.59998 16.4905L2.52734 15.4737C2.52734 12.8226 2.72103 10.8737 3.05998 9.62684C3.36261 8.53737 4.06471 7.83526 5.15419 7.53263C5.72313 7.37526 6.76419 7.26632 8.36208 7.19368C9.93576 7.10895 11.3763 7.07263 12.7079 7.07263L14.6326 7C19.7047 7 22.8642 7.19368 24.111 7.53263C25.2005 7.83526 25.9026 8.53737 26.2052 9.62684Z" fill="#231F20"/>
</g>
</svg>
