<svg width="22" height="24" viewBox="0 0 22 24" fill="none" xmlns="http://www.w3.org/2000/svg">
<g id="fa6-brands:square-facebook" clip-path="url(#clip0_2759_1097)">
<path id="Vector" d="M18.9396 2.89453H3.05994C2.48564 2.89453 1.93486 3.11911 1.52877 3.51886C1.12267 3.9186 0.894531 4.46078 0.894531 5.02611L0.894531 20.6577C0.894531 21.223 1.12267 21.7652 1.52877 22.1649C1.93486 22.5647 2.48564 22.7893 3.05994 22.7893H9.25167V16.0255H6.40957V12.8419H9.25167V10.4155C9.25167 7.6555 10.9208 6.13098 13.4774 6.13098C14.7017 6.13098 15.982 6.34591 15.982 6.34591V9.05479H14.5714C13.1814 9.05479 12.7479 9.90387 12.7479 10.7747V12.8419H15.8508L15.3545 16.0255H12.7479V22.7893H18.9396C19.5139 22.7893 20.0647 22.5647 20.4708 22.1649C20.8769 21.7652 21.1051 21.223 21.1051 20.6577V5.02611C21.1051 4.46078 20.8769 3.9186 20.4708 3.51886C20.0647 3.11911 19.5139 2.89453 18.9396 2.89453Z" fill="#231F20"/>
</g>
<defs>
<clipPath id="clip0_2759_1097">
<rect width="20.2105" height="22.7368" fill="white" transform="translate(0.894531 0.631836)"/>
</clipPath>
</defs>
</svg>
